<svg width="96" height="98" viewBox="0 0 96 98" fill="none" xmlns="http://www.w3.org/2000/svg">
<path d="M62.3315 38.5714C61.4518 43.213 59.888 48.0521 58.4219 51.9036C59.3015 51.9036 60.9631 52.0024 61.8428 53.78C63.0157 56.1502 65.2637 61.1868 66.7298 64.4457H68.0004V50.4222C68.0004 42.2254 63.7976 39.2627 62.3315 38.5714Z" fill="#111111" stroke="#6B6B6B" stroke-miterlimit="10"/>
<path d="M34.6706 38.5714C35.5503 43.213 37.1141 48.0521 38.5802 51.9036C37.7005 51.9036 36.039 52.0024 35.1593 53.78C33.9864 56.1502 31.7384 61.1868 30.2723 64.4457H29.0017V50.4222C28.9039 42.2254 33.1068 39.2627 34.6706 38.5714Z" fill="#111111" stroke="#6B6B6B" stroke-miterlimit="10"/>
<path d="M34.6706 38.5714C35.5503 43.213 37.1141 48.0521 38.5802 51.9036C37.7005 51.9036 36.039 52.0024 35.1593 53.78C33.9864 56.1502 31.7384 61.1868 30.2723 64.4457H29.0017V50.4222C28.9039 42.2254 33.1068 39.2627 34.6706 38.5714Z" fill="#111111"/>
<path d="M45.7154 1.93266C41.6103 7.26553 33.6934 18.9189 33.6934 32.4486C33.6934 44.2006 41.8058 60.1993 41.8058 60.1993H48.3544H54.8052C54.8052 60.1993 62.9176 44.2006 62.9176 32.4486C62.9176 19.0176 55.0984 7.36429 50.8956 2.03141C49.4295 0.0562727 47.2792 0.0562727 45.7154 1.93266Z" fill="white" stroke="#6B6B6B" stroke-miterlimit="10"/>
<path d="M55.0982 60.1995H41.9033V63.2609H55.0982V60.1995Z" fill="#111111" stroke="#6B6B6B" stroke-miterlimit="10"/>
<path d="M55.0978 63.2607C55.0978 63.2607 61.7441 70.075 59.3006 79.5556C59.3006 79.5556 57.7368 74.7165 55.5865 72.6427C55.5865 72.6427 57.9323 77.4817 53.4362 84.0985C48.9402 90.7152 45.2261 94.3692 47.5718 97.3319C47.5718 97.3319 37.9933 82.7159 42.7826 73.0377C42.7826 73.0377 39.0685 79.0619 39.2639 83.1109C39.2639 83.1109 36.5272 71.2601 41.9029 63.3595H55.0978V63.2607Z" fill="#0C5196" stroke="#6B6B6B" stroke-miterlimit="10"/>
<path d="M48.2566 91.3077V63.2607H41.8058C36.4301 71.2601 39.1668 83.0121 39.1668 83.0121C38.8736 79.0619 42.6854 72.9389 42.6854 72.9389C38.4826 81.432 45.2267 93.6779 47.0837 96.6406C46.3018 95.1593 46.986 93.4804 48.2566 91.3077Z" fill="#0C5196"/>
<path d="M44.0529 63.2607C44.0529 63.2607 41.4139 65.4334 42.0981 69.7787C42.0981 69.7787 42.4891 68.2973 44.4439 67.4085C44.4439 67.4085 43.4665 75.4078 46.5942 79.7532C46.5942 79.7532 46.7896 73.2352 49.4286 72.2476C52.1653 71.2601 54.9021 67.606 53.3382 63.2607H44.0529Z" fill="#56A1E7" stroke="#6B6B6B" stroke-miterlimit="10"/>
<path d="M48.2558 63.2607H44.0529C44.0529 63.2607 41.4139 65.4334 42.0981 69.7787C42.0981 69.7787 42.4891 68.2973 44.4439 67.4085C44.4439 67.4085 43.4665 75.4078 46.5942 79.7532C46.5942 79.7532 46.6919 75.3091 48.2558 73.2352V63.2607Z" fill="#56A1E7"/>
<path d="M48.3544 0.550049C47.4747 0.648806 46.6928 1.04383 45.9109 1.93265C41.708 7.26552 33.6934 18.9188 33.6934 32.4486C33.6934 44.2006 41.9035 60.1993 41.9035 60.1993H48.3544V0.550049Z" fill="#6B6B6B"/>
<path d="M48.3544 9.53693C50.8957 9.53693 53.1437 8.94439 55.0985 7.85807C53.6324 5.4879 52.1663 3.51276 50.9934 2.0314C49.4296 0.056264 47.377 0.056264 45.8132 2.0314C44.6403 3.51276 43.1742 5.4879 41.6104 7.95682C43.4674 8.94439 45.8132 9.53693 48.3544 9.53693Z" fill="#0C5196" stroke="#6B6B6B" stroke-miterlimit="10"/>
<path d="M47.9626 0.550049C47.8648 0.550049 47.8648 0.550049 47.9626 0.550049C47.8648 0.550049 47.8648 0.550049 47.7671 0.550049H47.6693H47.5716H47.4739H47.3761H47.2784H47.1806H47.0829H46.9852H46.8874H46.7897H46.6919H46.5942C46.5942 0.550049 46.4965 0.550049 46.4965 0.648806C46.4965 0.648806 46.3987 0.648806 46.3987 0.747563C46.3987 0.747563 46.3987 0.747563 46.301 0.84632C46.301 0.84632 46.2032 0.84632 46.2032 0.945077C46.2032 0.945077 46.1055 0.945077 46.1055 1.04383C46.1055 1.04383 46.0078 1.04383 46.0078 1.14259C46.0078 1.14259 45.91 1.14259 45.91 1.24135C45.91 1.24135 45.8123 1.24135 45.8123 1.3401L45.7145 1.43886C45.7145 1.43886 45.7145 1.43886 45.6168 1.53762L45.5191 1.63638C45.5191 1.63638 45.5191 1.63638 45.4213 1.73513L45.3236 1.83389C45.3236 1.83389 45.3236 1.83389 45.3236 1.93265C45.2258 2.0314 45.2258 2.0314 45.1281 2.13016C45.1281 2.13016 45.1281 2.13016 45.1281 2.22892C45.1281 2.32767 45.0304 2.32767 45.0304 2.42643L44.9326 2.52519C44.9326 2.62395 44.8349 2.62395 44.8349 2.7227L44.7371 2.82146C44.7371 2.82146 44.6394 2.92022 44.6394 3.01897C44.6394 3.01897 44.5417 3.11773 44.5417 3.21649C44.5417 3.31524 44.4439 3.31524 44.4439 3.414C44.4439 3.51276 44.3462 3.51276 44.3462 3.61152L44.2484 3.71027C44.2484 3.80903 44.1507 3.80903 44.1507 3.90779L44.053 4.00654C43.9552 4.1053 43.9552 4.20406 43.8575 4.30281C43.8575 4.30281 43.8575 4.40157 43.7597 4.40157C43.662 4.50033 43.5643 4.59908 43.4665 4.7966C43.4665 4.7966 43.4665 4.7966 43.4665 4.89536C43.3688 4.99411 43.3688 5.09287 43.271 5.19163C43.5643 4.99411 43.4665 4.99411 43.4665 4.99411C43.3688 5.09287 43.3688 5.19163 43.271 5.29038L43.1733 5.38914C43.0756 5.4879 43.0756 5.58665 42.9778 5.68541L42.8801 5.78417C42.7823 5.88293 42.7823 5.98168 42.6846 6.08044L42.5869 6.1792C42.4891 6.27795 42.4891 6.37671 42.3914 6.47547C42.3914 6.47547 42.3914 6.57422 42.2936 6.57422C42.1959 6.67298 42.1959 6.77174 42.0982 6.8705C42.0982 6.8705 42.0982 6.8705 42.0982 6.96925C41.9027 7.26552 41.7072 7.56179 41.5117 7.85807C43.3688 8.84563 45.6168 9.43818 48.0603 9.53693V0.550049C48.0603 0.550049 48.0603 0.550049 47.9626 0.550049Z" fill="#0C5196"/>
<path d="M57.6395 30.3746C57.6395 35.6087 53.4366 39.7565 48.3541 39.7565C43.1739 39.7565 39.0688 35.5099 39.0688 30.3746C39.0688 25.1404 43.2717 20.9927 48.3541 20.9927C53.4366 20.8939 57.6395 25.1404 57.6395 30.3746Z" fill="#0C5196" stroke="#6B6B6B" stroke-miterlimit="10"/>
<path d="M48.3542 20.8939C43.174 20.8939 38.9712 25.1405 38.9712 30.2758C38.9712 35.51 43.174 39.6577 48.2565 39.6577V20.8939H48.3542Z" fill="#0C5196"/>
<path d="M55.196 30.3747C55.196 34.2262 52.0683 37.3864 48.2564 37.3864C44.4446 37.3864 41.3169 34.2262 41.3169 30.3747C41.3169 26.5231 44.4446 23.3629 48.2564 23.3629C52.166 23.3629 55.196 26.5231 55.196 30.3747Z" fill="#111111" stroke="#6B6B6B" stroke-miterlimit="10"/>
<path d="M48.3546 23.3629C44.5427 23.3629 41.415 26.5231 41.415 30.3747C41.415 34.2262 44.5427 37.3864 48.3546 37.3864V23.3629Z" fill="#111111"/>
<path d="M47.7674 66.8162C47.8651 67.2112 47.8651 67.705 47.9628 68.1H49.038C49.1357 67.705 49.2335 67.2112 49.2335 66.8162C49.4289 65.6311 49.6244 64.3472 49.7222 63.1622C49.9176 60.6932 50.0154 58.3231 50.0154 55.8541C50.0154 53.3852 49.9176 51.0151 49.7222 48.5461C49.6244 47.361 49.4289 46.0772 49.2335 44.8921C49.1357 44.3983 49.038 43.9046 48.9402 43.4108H47.9628C47.8651 43.9046 47.7674 44.3983 47.6696 44.8921C47.4741 46.0772 47.2787 47.361 47.1809 48.5461C46.9854 51.0151 46.8877 53.3852 46.8877 55.8541C46.8877 58.3231 46.9854 60.6932 47.1809 63.1622C47.3764 64.446 47.5719 65.6311 47.7674 66.8162Z" fill="#111111" stroke="#6B6B6B" stroke-miterlimit="10"/>
<path d="M48.2561 43.4108H47.9628C47.8651 43.9046 47.7674 44.3983 47.6696 44.8921C47.4741 46.0772 47.2787 47.361 47.1809 48.5461C46.9854 51.0151 46.8877 53.3852 46.8877 55.8541C46.8877 58.3231 46.9854 60.6932 47.1809 63.1622C47.2787 64.3472 47.4741 65.6311 47.6696 66.8162C47.7674 67.2112 47.7674 67.705 47.8651 68.1H48.1583V43.4108H48.2561Z" fill="#111111"/>
</svg>
